# xmcd
#
# Track frame offsets:
#	150
#	21720
#	37830
#	56120
#	78804
#	93295
#	106997
#	126025
#	145447
#	163100
#	180127
#	196897
#	216617
#	229234
#	243577
#	256240
#
# Disc length: 3614 seconds
#
# Revision: 3
# Processed by: cddbd v1.5.2PL0 Copyright (c) Steve Scherf et al.
# Submitted via: audiograbber 1.83.01
#
DISCID=dd0e1c10
DTITLE=MH1009 Monster Hits - Female Country Hits (MH)
DYEAR=1900
DGENRE=Karaoke
TTITLE0=Shania Twain - The Woman in Me (MH)
TTITLE1=Reba McEntire - Why Haven't I heard from You (MH)
TTITLE2=Trisha Yearwood - She's in Love with the Boy (MH)
TTITLE3=The Judds - Love Can Build a Bridge (MH)
TTITLE4=Jim Brickman and Martina McBride - Valentine (MH)
TTITLE5=Trisha Yearwood  - XXX's and OOO's (An American Girl)  (MH)
TTITLE6=Tanya Tucker  - Two Sparrows in a Hurricane (MH)
TTITLE7=Shania Twain - Who's Bed have Your Boots been Under (MH)
TTITLE8=Shania Twain  - If Youre not in it for Love (I'm outta here) (MH)
TTITLE9=LeAnn Rimes  - One Way Ticket (Because I Can) (MH)
TTITLE10=Trisha Yearwood  - Beleive Me Baby (I Lied) (MH)
TTITLE11=Trisha Yearwood  - How Do I Live (MH)
TTITLE12=LeAnn Rimes - Blue (MH)
TTITLE13=Mindy McCready  - Guy's Do It All The Time (MH)
TTITLE14=Patty Loveless - I Try To Think About Elvis (MH)
TTITLE15=Reba McEntire - The Greatest Man I Never New (MH)
EXTD=
EXTT0=
EXTT1=
EXTT2=
EXTT3=
EXTT4=
EXTT5=
EXTT6=
EXTT7=
EXTT8=
EXTT9=
EXTT10=
EXTT11=
EXTT12=
EXTT13=
EXTT14=
EXTT15=
PLAYORDER=
